<mxfile host="app.diagrams.net" modified="2021-05-11T08:27:58.396Z" agent="5.0 (Macintosh; Intel Mac OS X 10_15_7) AppleWebKit/537.36 (KHTML, like Gecko) Chrome/90.0.4430.85 Safari/537.36" etag="8LRVP_vHGd0bJUngR0t6" version="14.6.3" type="github">
  <diagram id="swhH16knPHR-FXroZimL" name="Page-1">
    <mxGraphModel dx="946" dy="614" grid="0" gridSize="10" guides="1" tooltips="1" connect="1" arrows="1" fold="1" page="1" pageScale="1" pageWidth="827" pageHeight="1169" math="1" shadow="0">
      <root>
        <mxCell id="0" />
        <mxCell id="1" parent="0" />
        <mxCell id="r69_ONQuCeuOdMsd0bGK-1" value="" style="curved=1;endArrow=none;html=1;endFill=0;" edge="1" parent="1">
          <mxGeometry width="50" height="50" relative="1" as="geometry">
            <mxPoint x="169" y="397" as="sourcePoint" />
            <mxPoint x="209" y="258" as="targetPoint" />
            <Array as="points">
              <mxPoint x="159" y="354" />
              <mxPoint x="223" y="310" />
            </Array>
          </mxGeometry>
        </mxCell>
      </root>
    </mxGraphModel>
  </diagram>
</mxfile>
